<svg width="135" height="116" viewBox="0 0 135 116" fill="none" xmlns="http://www.w3.org/2000/svg">
<path d="M16.5133 92.7982C13.334 92.7982 10.2593 91.5376 7.84298 89.2436C7.03694 88.4776 6.1781 87.1459 5.29039 85.2857C4.72389 84.0875 4.40659 82.7635 4.36184 81.4112C4.31709 80.0589 4.54603 78.7126 5.03181 77.4715C4.56355 78.0003 4.04563 78.472 3.4869 78.8784L3.20445 79.087L3.18813 78.711C3.17743 78.4664 3.17201 78.2227 3.17201 77.9866C3.17201 76.595 4.12002 75.1829 3.6828 73.8967C1.84004 68.4754 -4.00472 63.0877 4.46613 54.6976C5.24973 53.9214 4.20296 52.3697 4.20296 51.1954C4.20296 39.6871 15.4658 22.4237 23.0056 30.3245C27.4066 34.9362 36.5758 38.2123 40.8569 44.627L40.9136 44.8171L40.7466 44.8921C39.8912 45.2912 38.9902 45.5572 38.0693 45.6827C39.0511 45.9049 40.0531 45.9981 41.0545 45.9603L41.2098 45.9543L41.2477 46.1219C41.6202 47.7813 41.8084 49.4851 41.8082 51.1954L41.8075 51.3802C41.804 52.6792 42.0472 53.9645 42.5212 55.1521C42.9951 56.3398 43.6892 57.4032 44.5581 58.2731C45.9307 59.6625 47.0275 61.3542 47.7786 63.2402C48.5297 65.1263 48.9186 67.1654 48.9206 69.2276C48.9206 71.6673 47.427 74.8698 46.1741 77.1269C45.8565 77.7018 45.4258 78.1894 44.9143 78.5532C44.4028 78.9169 43.8237 79.1474 43.2205 79.2272C42.6492 79.3072 42.069 79.2468 41.5211 79.0502C40.9731 78.8537 40.4707 78.5259 40.0495 78.0899C40.6426 79.4138 41.4154 80.6285 42.341 81.6917L42.5119 81.8872L42.2997 82.0245C40.2598 83.3451 37.9407 84.0404 35.5794 84.0394L35.4411 84.039C31.8562 84.039 28.4535 85.5809 26.1053 88.2694C24.8586 89.6953 23.368 90.8304 21.7208 91.608C20.0737 92.3857 18.3032 92.7903 16.5133 92.7982Z" fill="#E6E6E6"/>
<path d="M11.8088 116C11.7511 116 11.6953 115.977 11.6517 115.935C11.6082 115.893 11.5797 115.835 11.5716 115.771C11.5614 115.692 10.5629 107.697 11.4597 97.072C12.2878 87.2596 14.9472 73.1261 22.9138 61.5185C22.9328 61.4907 22.9567 61.4672 22.9839 61.4496C23.0112 61.432 23.0413 61.4205 23.0725 61.4158C23.1038 61.411 23.1356 61.4132 23.166 61.4222C23.1965 61.4311 23.2251 61.4466 23.2502 61.4678C23.2753 61.4891 23.2964 61.5156 23.3122 61.5458C23.3281 61.5761 23.3384 61.6095 23.3426 61.6442C23.3468 61.6789 23.3448 61.7142 23.3367 61.7481C23.3286 61.7819 23.3146 61.8136 23.2954 61.8415C15.3977 73.3488 12.7597 87.3785 11.9374 97.1217C11.0459 107.685 12.0365 115.617 12.0466 115.696C12.0515 115.734 12.0489 115.772 12.0392 115.809C12.0294 115.846 12.0127 115.879 11.9902 115.908C11.9676 115.937 11.9397 115.96 11.9085 115.976C11.8772 115.992 11.8432 116 11.8088 116H11.8088Z" fill="#3F3D56"/>
<path d="M19.0829 77.5978C19.0322 77.5979 18.9828 77.5801 18.9418 77.547C18.9008 77.514 18.8702 77.4674 18.8546 77.4139C18.8389 77.3604 18.8388 77.3027 18.8545 77.2492C18.8701 77.1957 18.9006 77.1491 18.9416 77.116C21.2116 75.4101 23.6639 74.0242 26.2419 72.9901C30.2696 71.353 36.3944 69.8689 42.6997 72.0968C42.7297 72.1074 42.7575 72.1245 42.7816 72.1471C42.8057 72.1696 42.8256 72.1972 42.84 72.2283C42.8545 72.2594 42.8633 72.2933 42.866 72.3281C42.8686 72.363 42.8651 72.3981 42.8555 72.4314C42.846 72.4647 42.8306 72.4957 42.8103 72.5224C42.79 72.5491 42.7651 72.5711 42.7371 72.5872C42.7091 72.6033 42.6786 72.6131 42.6472 72.616C42.6158 72.619 42.5842 72.615 42.5542 72.6044C36.3781 70.4223 30.3643 71.8819 26.4069 73.4904C23.8703 74.5068 21.4574 75.8694 19.2237 77.5469C19.1828 77.58 19.1335 77.5978 19.0829 77.5978V77.5978Z" fill="#3F3D56"/>
<path d="M115.593 92.7981C112.413 92.7981 109.339 91.5375 106.922 89.2435C106.116 88.4775 105.257 87.1457 104.37 85.2856C103.803 84.0874 103.486 82.7634 103.441 81.4111C103.396 80.0588 103.625 78.7125 104.111 77.4714C103.643 78.0002 103.125 78.4719 102.566 78.8783L102.284 79.0869L102.267 78.7109C102.257 78.4663 102.251 78.2226 102.251 77.9865C102.251 76.5949 103.199 75.1828 102.762 73.8966C100.919 68.4753 95.0746 63.0876 103.545 54.6975C104.329 53.9213 103.282 52.3696 103.282 51.1953C103.282 39.687 117.933 19.7773 122.085 30.3244C127.206 43.3315 136.028 41.9403 139.936 44.6269L139.993 44.817L139.826 44.892C138.971 45.2911 138.07 45.5571 137.149 45.6825C138.13 45.9048 139.132 45.998 140.134 45.9602L140.289 45.9542L140.327 46.1217C140.7 47.7812 140.888 49.485 140.888 51.1953L140.887 51.3801C140.883 52.6791 141.127 53.9644 141.6 55.152C142.074 56.3397 142.769 57.4031 143.637 58.273C145.01 59.6624 146.107 61.3541 146.858 63.2401C147.609 65.1262 147.998 67.1653 148 69.2275C148 71.6672 146.506 74.8697 145.253 77.1268C144.936 77.7017 144.505 78.1893 143.994 78.5531C143.482 78.9168 142.903 79.1472 142.3 79.2271C141.729 79.3071 141.148 79.2467 140.6 79.0501C140.052 78.8536 139.55 78.5258 139.129 78.0898C139.722 79.4136 140.495 80.6284 141.42 81.6915L141.591 81.8871L141.379 82.0244C139.339 83.345 137.02 84.0403 134.659 84.0393L134.52 84.0389C130.936 84.0389 127.533 85.5808 125.185 88.2693C123.938 89.6952 122.447 90.8302 120.8 91.6079C119.153 92.3856 117.383 92.7902 115.593 92.7981V92.7981Z" fill="#E6E6E6"/>
<path d="M110.888 116C110.83 116 110.775 115.977 110.731 115.935C110.688 115.893 110.659 115.835 110.651 115.771C110.641 115.692 109.642 107.697 110.539 97.072C111.367 87.2596 114.027 73.1261 121.993 61.5185C122.012 61.4907 122.036 61.4672 122.063 61.4496C122.091 61.432 122.121 61.4205 122.152 61.4158C122.183 61.411 122.215 61.4132 122.245 61.4222C122.276 61.4311 122.304 61.4466 122.33 61.4678C122.355 61.4891 122.376 61.5156 122.392 61.5458C122.407 61.5761 122.418 61.6095 122.422 61.6442C122.426 61.6789 122.424 61.7142 122.416 61.7481C122.408 61.7819 122.394 61.8136 122.375 61.8415C114.477 73.3488 111.839 87.3785 111.017 97.1217C110.125 107.685 111.116 115.617 111.126 115.696C111.131 115.734 111.128 115.772 111.119 115.809C111.109 115.846 111.092 115.879 111.069 115.908C111.047 115.937 111.019 115.96 110.988 115.976C110.957 115.992 110.923 116 110.888 116H110.888Z" fill="#3F3D56"/>
<path d="M117.504 78.1462C117.453 78.1462 117.404 78.1284 117.363 78.0954C117.322 78.0623 117.291 78.0157 117.276 77.9622C117.26 77.9087 117.26 77.8511 117.276 77.7976C117.291 77.744 117.322 77.6974 117.363 77.6643C119.633 75.9584 122.085 74.5725 124.663 73.5385C128.691 71.9014 134.816 70.4172 141.121 72.6452C141.151 72.6558 141.179 72.6728 141.203 72.6954C141.227 72.718 141.247 72.7456 141.261 72.7766C141.276 72.8077 141.284 72.8416 141.287 72.8765C141.29 72.9113 141.286 72.9464 141.277 72.9797C141.267 73.0131 141.252 73.044 141.231 73.0707C141.211 73.0975 141.186 73.1195 141.158 73.1356C141.13 73.1516 141.1 73.1614 141.068 73.1644C141.037 73.1673 141.005 73.1634 140.975 73.1528C134.799 70.9706 128.785 72.4302 124.828 74.0388C122.291 75.0551 119.879 76.4177 117.645 78.0953C117.604 78.1284 117.555 78.1462 117.504 78.1462V78.1462Z" fill="#3F3D56"/>
<path d="M106.523 47.7819C106.519 47.7257 106.532 47.6698 106.558 47.622C106.585 47.5742 106.625 47.537 106.672 47.5158C106.719 47.4945 106.77 47.4904 106.82 47.5038C106.869 47.5173 106.913 47.5477 106.946 47.5907C108.642 49.9816 110.063 52.5972 111.178 55.3775C112.939 59.7196 114.713 66.3949 113.166 73.5374C113.158 73.5714 113.145 73.6035 113.126 73.6318C113.108 73.6602 113.085 73.6841 113.058 73.7024C113.031 73.7207 113.001 73.7329 112.97 73.7384C112.939 73.7439 112.907 73.7425 112.876 73.7343C112.846 73.7261 112.817 73.7113 112.791 73.6907C112.766 73.6701 112.744 73.6442 112.728 73.6143C112.711 73.5845 112.7 73.5513 112.695 73.5167C112.69 73.4822 112.692 73.4469 112.699 73.4128C114.215 66.4167 112.47 59.8626 110.74 55.5962C109.645 52.8605 108.247 50.2868 106.579 47.9342C106.546 47.8913 106.526 47.8379 106.523 47.7819V47.7819Z" fill="#3F3D56"/>
<path d="M7.93716 46.1373C7.93347 46.0812 7.94588 46.0252 7.97261 45.9774C7.99935 45.9296 8.03903 45.8925 8.08597 45.8712C8.1329 45.85 8.18469 45.8458 8.2339 45.8593C8.2831 45.8728 8.3272 45.9032 8.35988 45.9462C10.0559 48.337 11.4776 50.9527 12.5922 53.733C14.353 58.0751 16.1274 64.7504 14.5799 71.8929C14.5726 71.9269 14.5593 71.959 14.5407 71.9873C14.5222 72.0156 14.4989 72.0396 14.472 72.0579C14.4451 72.0762 14.4152 72.0884 14.3841 72.0939C14.353 72.0993 14.3212 72.0979 14.2905 72.0898C14.2599 72.0816 14.231 72.0668 14.2055 72.0462C14.18 72.0256 14.1584 71.9996 14.142 71.9698C14.1255 71.9399 14.1146 71.9068 14.1097 71.8722C14.1048 71.8376 14.106 71.8023 14.1134 71.7683C15.6291 64.7721 13.8847 58.218 12.1546 53.9517C11.0589 51.216 9.66097 48.6422 7.99303 46.2896C7.96035 46.2467 7.94078 46.1934 7.93716 46.1373V46.1373Z" fill="#3F3D56"/>
<path d="M74.1614 19.2093C73.8751 18.8834 73.5229 18.6381 73.1341 18.4935C72.7453 18.349 72.3311 18.3095 71.9258 18.3784C71.5204 18.4472 71.1358 18.6223 70.8036 18.8892C70.4715 19.1561 70.2015 19.5071 70.016 19.9131C66.1123 22.9294 63.6374 26.9711 62.7036 32.1187L55.7782 25.1427C55.8594 24.5591 55.7721 23.962 55.5287 23.437C55.2854 22.9119 54.8985 22.4859 54.4236 22.2201C53.9487 21.9542 53.4101 21.8622 52.8852 21.9572C52.3602 22.0521 51.8759 22.3292 51.5015 22.7487C51.1272 23.1682 50.8822 23.7085 50.8016 24.2922C50.7209 24.8758 50.8089 25.4729 51.0528 25.9976C51.2967 26.5223 51.684 26.9479 52.1592 27.2131C52.6343 27.4784 53.173 27.5697 53.6978 27.4741C54.9692 29.87 60.8662 40.4652 64.5058 38.0394C67.5651 36.0005 72.9981 25.8983 74.5942 22.5478C74.8497 22.0121 74.9454 21.4002 74.8676 20.8003C74.7898 20.2003 74.5426 19.6432 74.1614 19.2093V19.2093Z" fill="#FFB6B6"/>
<path d="M74.3828 23.8357C74.7306 22.7892 75.0092 21.6356 74.7076 20.5716C74.376 19.4015 73.357 18.5636 72.2674 18.3598C71.1778 18.156 70.0455 18.5207 69.1086 19.1712C68.1718 19.8216 67.4099 20.7403 66.733 21.7099L66.9143 21.3896C66.0331 22.6713 65.1519 23.953 64.2708 25.2347C66.5073 26.9598 68.7439 28.685 70.9805 30.4101C72.4383 28.4456 73.5884 26.2232 74.3828 23.8357Z" fill="#6C63FF"/>
<path d="M64.7368 112.122L61.5333 112.122L60.0093 98.4031L64.7374 98.4033L64.7368 112.122Z" fill="#FFB6B6"/>
<path d="M64.8498 115.833L54.9983 115.832V115.694C54.9984 114.565 55.4024 113.482 56.1215 112.684C56.8406 111.885 57.8158 111.437 58.8328 111.437H58.833L60.6325 109.921L63.9899 111.437L64.8499 111.437L64.8498 115.833Z" fill="#2F2E41"/>
<path d="M111.73 61.6125L113.075 64.8405L102.5 72.136L100.515 67.3715L111.73 61.6125Z" fill="#FFB6B6"/>
<path d="M114.716 59.9412L118.851 69.868L118.738 69.926C117.815 70.4 116.761 70.4475 115.806 70.0581C114.851 69.6687 114.075 68.8743 113.648 67.8496L113.648 67.8494L111.654 66.6725L111.483 62.6529L111.122 61.7864L114.716 59.9412Z" fill="#2F2E41"/>
<path d="M40.8225 6.88956C41.4803 6.67032 41.9023 6.0807 41.7649 5.5726C41.6276 5.06451 40.9829 4.83033 40.325 5.04957C39.6671 5.26881 39.2452 5.85843 39.3825 6.36653C39.5199 6.87463 40.1646 7.10879 40.8225 6.88956Z" fill="#E6E6E6"/>
<path d="M48.9435 6.43985C49.6014 6.22061 50.0234 5.63099 49.886 5.1229C49.7486 4.6148 49.104 4.38063 48.4461 4.59986C47.7882 4.8191 47.3662 5.40872 47.5036 5.91682C47.641 6.42492 48.2857 6.65908 48.9435 6.43985Z" fill="#3F3D56"/>
<path d="M39.5905 14.4455C40.2484 14.2262 40.6703 13.6366 40.533 13.1285C40.3956 12.6204 39.7509 12.3862 39.0931 12.6055C38.4352 12.8247 38.0132 13.4143 38.1506 13.9224C38.288 14.4305 38.9326 14.6647 39.5905 14.4455Z" fill="#FF6584"/>
<path d="M37.0291 17.6041C37.3274 17.5524 37.5151 17.1245 37.4482 16.6483C37.3813 16.1721 37.0852 15.828 36.7868 15.8796C36.4885 15.9313 36.3008 16.3592 36.3677 16.8354C36.4346 17.3116 36.7307 17.6557 37.0291 17.6041Z" fill="#E6E6E6"/>
<path d="M36.582 23.2877C36.8804 23.236 37.0681 22.8081 37.0012 22.3319C36.9343 21.8557 36.6382 21.5116 36.3398 21.5632C36.0414 21.6149 35.8538 22.0428 35.9207 22.519C35.9875 22.9952 36.2836 23.3393 36.582 23.2877Z" fill="#3F3D56"/>
<path d="M44.4658 12.117C44.7642 12.0654 44.9519 11.6375 44.885 11.1613C44.8181 10.6851 44.522 10.3409 44.2236 10.3926C43.9252 10.4442 43.7376 10.8721 43.8045 11.3483C43.8713 11.8245 44.1674 12.1687 44.4658 12.117Z" fill="#E6E6E6"/>
<path d="M40.311 10.6092C40.6094 10.5576 40.7971 10.1296 40.7302 9.65345C40.6633 9.17725 40.3672 8.83309 40.0688 8.88474C39.7705 8.9364 39.5828 9.36431 39.6497 9.84051C39.7165 10.3167 40.0127 10.6609 40.311 10.6092Z" fill="#FF6584"/>
<path d="M45.167 5.75985C45.4654 5.70819 45.653 5.28028 45.5862 4.80408C45.5193 4.32788 45.2232 3.98372 44.9248 4.03538C44.6264 4.08703 44.4387 4.51494 44.5056 4.99114C44.5725 5.46734 44.8686 5.8115 45.167 5.75985Z" fill="#3F3D56"/>
<path d="M90.6054 96.454C91.2851 96.3442 91.7803 95.8296 91.7116 95.3046C91.6428 94.7797 91.036 94.4431 90.3562 94.5529C89.6765 94.6627 89.1813 95.1773 89.2501 95.7022C89.3189 96.2272 89.9257 96.5638 90.6054 96.454Z" fill="#E6E6E6"/>
<path d="M82.5126 95.5773C83.1923 95.4675 83.6876 94.9529 83.6188 94.4279C83.55 93.903 82.9432 93.5664 82.2635 93.6762C81.5837 93.786 81.0885 94.3006 81.1573 94.8255C81.2261 95.3505 81.8329 95.6871 82.5126 95.5773Z" fill="#3F3D56"/>
<path d="M92.8214 89.18C93.5012 89.0703 93.9964 88.5557 93.9276 88.0307C93.8588 87.5057 93.252 87.1692 92.5723 87.279C91.8926 87.3888 91.3973 87.9033 91.4661 88.4283C91.5349 88.9533 92.1417 89.2898 92.8214 89.18Z" fill="#FF6584"/>
<path d="M95.5355 86.3171C95.8375 86.3146 96.0796 85.9218 96.0763 85.4399C96.073 84.9579 95.8256 84.5693 95.5236 84.5718C95.2216 84.5744 94.9795 84.9671 94.9828 85.449C94.986 85.931 95.2335 86.3196 95.5355 86.3171Z" fill="#E6E6E6"/>
<path d="M96.7281 80.7673C97.0301 80.7647 97.2722 80.372 97.2689 79.8901C97.2657 79.4081 97.0182 79.0195 96.7162 79.022C96.4142 79.0246 96.1721 79.4173 96.1754 79.8992C96.1787 80.3812 96.4261 80.7698 96.7281 80.7673Z" fill="#3F3D56"/>
<path d="M87.4544 90.5344C87.7564 90.5318 87.9985 90.1391 87.9953 89.6572C87.992 89.1752 87.7445 88.7866 87.4425 88.7891C87.1405 88.7916 86.8984 89.1844 86.9017 89.6663C86.905 90.1483 87.1524 90.5369 87.4544 90.5344Z" fill="#E6E6E6"/>
<path d="M91.3651 92.7021C91.667 92.6996 91.9092 92.3068 91.9059 91.8249C91.9026 91.3429 91.6552 90.9543 91.3532 90.9568C91.0512 90.9594 90.8091 91.3521 90.8123 91.8341C90.8156 92.316 91.0631 92.7046 91.3651 92.7021Z" fill="#FF6584"/>
<path d="M85.9212 96.7089C86.2232 96.7064 86.4653 96.3137 86.4621 95.8317C86.4588 95.3498 86.2113 94.9611 85.9093 94.9637C85.6074 94.9662 85.3652 95.359 85.3685 95.8409C85.3718 96.3228 85.6192 96.7115 85.9212 96.7089Z" fill="#3F3D56"/>
<path d="M69.7752 50.113L67.8282 52.7601C67.8725 53.4771 67.669 53.8867 67.0643 53.7988C67.0643 53.7988 67.1546 55.1114 66.4137 54.6833C65.6728 54.2553 65.8545 55.4436 65.8545 55.4436L65.3009 56.1963C65.3009 56.1963 65.2836 57.4764 64.7376 56.9622C64.1916 56.448 64.0165 57.9426 64.0165 57.9426L63.3217 58.8872L56.2383 68.5178L60.209 103.914L64.8499 103.591L65.9812 72.5596C66.2697 71.704 66.7077 71.2557 67.3772 71.4389C67.6771 71.5118 67.8525 71.3116 67.9629 70.9686L68.4964 70.5403L75.4802 64.9336L84.7051 82.4858L107.642 69.0559L105.502 64.4878L89.4111 70.3981L88.9892 64.8093C88.4393 64.4538 88.5317 64.029 88.896 63.5748L88.7907 62.1803C89.3362 61.8086 89.0658 61.2194 88.6711 60.5972C87.8471 59.9216 87.9278 59.1521 88.5001 58.3315C88.5001 58.3315 89.2229 47.8337 85.7189 46.3852C82.2149 44.9366 69.7752 50.113 69.7752 50.113Z" fill="#2F2E41"/>
<path d="M76.6537 15.6548L72.2561 15.8834L69.9519 19.5379C68.3477 23.4561 67.9073 27.8391 68.6943 32.0534L70.2811 40.5511L69.8607 46.8525C68.7342 47.8614 68.6406 49.0475 69.6228 50.4182C68.4135 55.0502 78.7031 52.9655 88.2207 51.3318C88.2536 49.1249 87.7385 46.8778 86.4103 44.571L87.6909 26.1604L82.954 19.9033L79.3286 17.2526L76.6537 15.6548Z" fill="#6C63FF"/>
<path d="M80.7692 20.7044C80.4175 20.9384 80.1212 21.2622 79.9048 21.6488C79.6884 22.0354 79.5582 22.4738 79.5249 22.9275C79.4916 23.3812 79.5563 23.8372 79.7136 24.2576C79.8708 24.678 80.1161 25.0507 80.4291 25.3448C80.9597 29.1666 84.2554 32.8483 89.4379 36.0616L81.7254 41.9322C81.2327 41.7097 80.6892 41.6662 80.1729 41.8079C79.6565 41.9495 79.1939 42.2691 78.8513 42.7208C78.5086 43.1724 78.3037 43.7329 78.2657 44.3219C78.2277 44.9109 78.3588 45.4981 78.64 45.9992C78.9212 46.5004 79.3382 46.8899 79.8311 47.1117C80.324 47.3335 80.8675 47.3764 81.3837 47.2341C81.8999 47.0917 82.3622 46.7716 82.7044 46.3195C83.0465 45.8674 83.2509 45.3067 83.2883 44.7176C85.6816 43.8974 96.3285 39.9732 95.0428 35.4816C93.9621 31.7062 86.3628 23.5052 83.795 21.0075C83.3845 20.6079 82.8704 20.3632 82.3266 20.3087C81.7828 20.2542 81.2375 20.3928 80.7692 20.7044V20.7044Z" fill="#FFB6B6"/>
<path d="M72.3817 37.8247C71.8691 37.8237 71.3756 37.6084 70.9994 37.2217C70.6233 36.8349 70.3922 36.3051 70.3521 35.7377L70.079 31.8721C70.0367 31.2735 70.2104 30.6808 70.5617 30.2243C70.9131 29.7678 71.4133 29.485 71.9525 29.4381L78.7159 28.8492C79.2551 28.8023 79.789 28.9951 80.2001 29.3852C80.6112 29.7752 80.866 30.3306 80.9083 30.9292L81.1813 34.7948C81.2236 35.3934 81.05 35.9861 80.6986 36.4426C80.3473 36.899 79.847 37.1819 79.3078 37.2288L72.5444 37.8177C72.49 37.8224 72.4358 37.8247 72.3817 37.8247Z" fill="#F2F2F2"/>
<path d="M73.3553 14.728C76.5352 14.728 79.1131 11.866 79.1131 8.33557C79.1131 4.80511 76.5352 1.94312 73.3553 1.94312C70.1753 1.94312 67.5974 4.80511 67.5974 8.33557C67.5974 11.866 70.1753 14.728 73.3553 14.728Z" fill="#FFB6B6"/>
<path d="M79.3376 4.26712C79.0647 3.8739 78.7524 3.51275 78.5148 3.09223C78.2861 2.68736 78.1299 2.23289 77.872 1.85021C77.1094 0.718394 75.6913 0.486945 74.4245 0.345986C73.588 0.252919 72.7515 0.159849 71.915 0.0667732C71.445 -0.0071086 70.9685 -0.0166624 70.4964 0.0383313C70.0471 0.11579 69.6202 0.307663 69.2489 0.598918C68.8777 0.890174 68.5722 1.2729 68.3564 1.71713C68.1113 2.23199 67.9476 2.87366 67.4697 3.1138C67.2445 3.19264 67.0152 3.25595 66.783 3.30336C66.5572 3.3811 66.3302 3.58137 66.3387 3.84365C66.3543 4.32931 67.1261 4.6073 66.9378 5.046C66.7715 5.43342 66.1056 5.15853 66.0111 5.74338C65.9983 5.82778 66.0015 5.91421 66.0206 5.99715C66.0396 6.08008 66.0741 6.15767 66.1217 6.22497C66.3365 6.53039 66.689 6.60976 67.0193 6.67716L66.4326 7.60867C68.3321 8.47523 70.4468 8.56637 72.4012 7.8659C72.6929 7.75857 73.0043 7.73428 73.3067 7.79526C73.6091 7.85623 73.8929 8.00053 74.1321 8.21491C74.3712 8.42929 74.558 8.70689 74.6754 9.02226C74.7928 9.33763 74.837 9.68068 74.8039 10.0199L74.8012 10.0464C74.7885 10.1487 74.801 10.2529 74.8374 10.3479C74.8738 10.443 74.9326 10.5253 75.0078 10.5861C75.3056 10.8108 75.6079 10.4956 75.7429 10.1838C75.8802 9.86658 75.9714 9.48176 76.3036 9.3706C76.4392 9.33262 76.5822 9.34452 76.7112 9.4045C76.8402 9.46448 76.9481 9.56931 77.0188 9.70324C77.2772 10.1534 77.1711 10.6908 77.0224 11.1672C76.6784 12.2667 76.1199 13.2683 75.3869 14.1004C76.6379 14.0086 76.2718 14.1478 77.5228 14.0559L77.8717 14.1162C78.7088 13.5364 79.1236 12.4333 79.3443 11.3656C79.845 8.94383 80.7035 6.23552 79.3376 4.26712Z" fill="#2F2E41"/>
<path d="M84.2194 20.181C83.3879 19.5548 82.4463 18.9773 81.4435 19.0467C80.3407 19.123 79.3633 20.0198 78.9233 21.1451C78.4834 22.2704 78.5302 23.5784 78.8739 24.7443C79.2175 25.9102 79.8377 26.952 80.5229 27.9144L80.2863 27.6421C81.1953 28.8997 82.1042 30.1573 83.0131 31.4148C85.0588 29.4189 87.1046 27.423 89.1503 25.4271C87.7829 23.3842 86.116 21.6108 84.2194 20.181Z" fill="#6C63FF"/>
<path d="M73.1956 115.496L73.1981 115.369C73.25 113.233 73.7203 111.136 74.5761 109.222C75.432 107.309 76.6529 105.625 78.154 104.288C79.0014 103.546 79.9296 102.925 80.9168 102.44L81.0109 102.393L81.027 102.506C81.2181 103.855 81.5209 105.231 81.6619 105.842L82.6073 101.747L82.7123 101.713C83.1941 101.556 83.7071 101.563 84.1853 101.732C84.6635 101.902 85.0851 102.227 85.3956 102.665C85.7196 103.103 85.918 103.639 85.9653 104.203C86.0125 104.767 85.9065 105.335 85.6608 105.832C85.4405 106.287 85.2239 106.763 85.0143 107.223C84.2944 108.803 83.5501 110.438 82.4654 111.707C81.6358 112.659 80.6252 113.394 79.5073 113.857C78.3894 114.32 77.1925 114.5 76.0039 114.383L73.1956 115.496Z" fill="#F2F2F2"/>
<path d="M86.5544 115.866L41.8288 115.922C41.803 115.922 41.7776 115.917 41.7538 115.906C41.73 115.895 41.7084 115.879 41.6902 115.858C41.672 115.838 41.6576 115.814 41.6477 115.788C41.6379 115.761 41.6328 115.733 41.6328 115.705C41.6328 115.676 41.6379 115.648 41.6477 115.621C41.6576 115.595 41.672 115.571 41.6902 115.551C41.7084 115.531 41.73 115.515 41.7538 115.504C41.7776 115.493 41.803 115.487 41.8288 115.487L86.5544 115.431C86.6064 115.431 86.6562 115.454 86.693 115.495C86.7297 115.535 86.7504 115.591 86.7504 115.648C86.7504 115.706 86.7297 115.762 86.693 115.802C86.6562 115.843 86.6064 115.866 86.5544 115.866V115.866Z" fill="#CACACA"/>
<path d="M128.359 115.866L102.56 115.922C102.534 115.922 102.509 115.917 102.485 115.906C102.461 115.895 102.44 115.879 102.422 115.858C102.403 115.838 102.389 115.814 102.379 115.788C102.369 115.761 102.364 115.733 102.364 115.705C102.364 115.676 102.369 115.648 102.379 115.621C102.389 115.595 102.403 115.571 102.422 115.551C102.44 115.531 102.461 115.515 102.485 115.504C102.509 115.493 102.534 115.487 102.56 115.487L128.359 115.431C128.411 115.431 128.461 115.454 128.497 115.495C128.534 115.535 128.555 115.591 128.555 115.648C128.555 115.706 128.534 115.762 128.497 115.802C128.461 115.843 128.411 115.866 128.359 115.866V115.866Z" fill="#CACACA"/>
<path d="M25.823 115.866L1.67033 115.922C1.6446 115.922 1.61912 115.917 1.59534 115.906C1.57156 115.895 1.54996 115.879 1.53176 115.858C1.51356 115.838 1.49913 115.814 1.48928 115.788C1.47943 115.761 1.47437 115.733 1.47437 115.705C1.47437 115.676 1.47943 115.648 1.48928 115.621C1.49913 115.595 1.51356 115.571 1.53176 115.551C1.54996 115.531 1.57156 115.515 1.59534 115.504C1.61912 115.493 1.6446 115.487 1.67033 115.487L25.823 115.431C25.8488 115.431 25.8743 115.436 25.8982 115.447C25.922 115.458 25.9437 115.474 25.9619 115.494C25.9802 115.515 25.9947 115.539 26.0046 115.565C26.0144 115.592 26.0195 115.62 26.0195 115.648C26.0195 115.677 26.0144 115.705 26.0046 115.732C25.9947 115.758 25.9802 115.782 25.9619 115.803C25.9437 115.823 25.922 115.839 25.8982 115.85C25.8743 115.861 25.8488 115.866 25.823 115.866V115.866Z" fill="#CACACA"/>
<path d="M51.9834 18.3215C51.8884 18.3215 51.7945 18.3434 51.7076 18.3857C51.6207 18.428 51.5426 18.4898 51.4783 18.5674C51.414 18.6449 51.3648 18.7363 51.3339 18.836C51.3031 18.9356 51.2912 19.0413 51.2989 19.1463C52.0003 22.816 52.3088 26.3155 52.0712 29.5782C52.0862 29.7686 52.1647 29.9459 52.2913 30.0754C52.4179 30.2049 52.5835 30.2772 52.7556 30.2782H57.1862C57.3583 30.2772 57.5239 30.2049 57.6505 30.0754C57.7771 29.9459 57.8556 29.7686 57.8706 29.5782C57.5127 26.2872 57.8911 22.7733 58.6429 19.1463C58.6506 19.0413 58.6387 18.9356 58.6079 18.836C58.577 18.7363 58.5279 18.6449 58.4635 18.5674C58.3992 18.4898 58.3211 18.428 58.2342 18.3857C58.1473 18.3434 58.0534 18.3215 57.9585 18.3215H51.9834Z" fill="#6C63FF"/>
<path d="M58.9977 19.7118L58.6672 17.9687C58.6371 17.8102 58.5589 17.6679 58.4456 17.5659C58.3323 17.4638 58.1908 17.4081 58.0449 17.4081H55.9814C55.9733 17.3777 55.9602 17.3492 55.9427 17.3242L55.7134 17.006C55.6918 16.976 55.6644 16.9518 55.6332 16.9352C55.602 16.9185 55.5679 16.9099 55.5333 16.9099H54.2592C54.2246 16.9099 54.1905 16.9185 54.1593 16.9352C54.1281 16.9518 54.1007 16.976 54.0791 17.006L53.8498 17.3242C53.8323 17.3492 53.8191 17.3777 53.811 17.4081H51.8971C51.7512 17.4081 51.6098 17.4638 51.4965 17.5659C51.3832 17.6679 51.3049 17.8102 51.2749 17.9687L50.9443 19.7118C50.9248 19.8147 50.9262 19.921 50.9485 20.0231C50.9707 20.1252 51.0131 20.2206 51.0728 20.3021C51.1324 20.3837 51.2077 20.4495 51.2931 20.4947C51.3785 20.5399 51.472 20.5633 51.5666 20.5633C53.7281 21.3237 55.9977 21.3237 58.3755 20.5633C58.4701 20.5633 58.5635 20.5399 58.6489 20.4947C58.7344 20.4495 58.8097 20.3837 58.8693 20.3021C58.9289 20.2206 58.9714 20.1252 58.9936 20.0231C59.0158 19.921 59.0172 19.8147 58.9977 19.7118V19.7118Z" fill="#3F3D56"/>
</svg>
