<svg width="80" height="48" viewBox="0 0 80 48" fill="none" xmlns="http://www.w3.org/2000/svg">
<g filter="url(#filter0_d_62_7)">
<path d="M59.3486 32.1679V35.75H51.5977V23.8097M59.3486 32.1679H66.2137V24.0485M59.3486 32.1679V7.8097M59.3486 7.8097V3.75H51.5977V15.4515M59.3486 7.8097H66.2137V15.4515M66.2137 15.4515H71.75V24.0485H66.2137M66.2137 15.4515V24.0485M51.5977 15.4515H28.5666M51.5977 15.4515V23.8097M28.5666 15.4515V23.8097M28.5666 15.4515V3.75H20.1514V7.5709M28.5666 23.8097H51.5977M28.5666 23.8097V35.75H20.1514V31.6903M20.1514 7.5709L13.5078 7.8097V15.4515M20.1514 7.5709V31.6903M20.1514 31.6903H13.5078V23.8097M13.5078 15.4515H7.75V23.8097H13.5078M13.5078 15.4515V23.8097" stroke="#404394" stroke-width="3" shape-rendering="crispEdges"/>
</g>
<defs>
<filter id="filter0_d_62_7" x="0.25" y="0.25" width="79" height="47" filterUnits="userSpaceOnUse" color-interpolation-filters="sRGB">
<feFlood flood-opacity="0" result="BackgroundImageFix"/>
<feColorMatrix in="SourceAlpha" type="matrix" values="0 0 0 0 0 0 0 0 0 0 0 0 0 0 0 0 0 0 127 0" result="hardAlpha"/>
<feOffset dy="4"/>
<feGaussianBlur stdDeviation="3"/>
<feComposite in2="hardAlpha" operator="out"/>
<feColorMatrix type="matrix" values="0 0 0 0 0 0 0 0 0 0 0 0 0 0 0 0 0 0 0.5 0"/>
<feBlend mode="normal" in2="BackgroundImageFix" result="effect1_dropShadow_62_7"/>
<feBlend mode="normal" in="SourceGraphic" in2="effect1_dropShadow_62_7" result="shape"/>
</filter>
</defs>
</svg>
